<svg id="visual" viewBox="0 0 900 600" width="900" height="600" xmlns="http://www.w3.org/2000/svg" xmlns:xlink="http://www.w3.org/1999/xlink" version="1.1"><g stroke-width="1" stroke-linejoin="bevel"><path d="M440 289L445 199L338.5 298Z" fill="#112e42" stroke="#112e42"></path><path d="M445 199L328.5 192L338.5 298Z" fill="#297ea6" stroke="#297ea6"></path><path d="M445 199L334.5 102L328.5 192Z" fill="#277297" stroke="#277297"></path><path d="M221 95L236 205L328.5 192Z" fill="#277297" stroke="#277297"></path><path d="M328.5 192L236 205L338.5 298Z" fill="#081a28" stroke="#081a28"></path><path d="M571.5 107L460 94L445 199Z" fill="#277297" stroke="#277297"></path><path d="M445 199L460 94L334.5 102Z" fill="#0c2435" stroke="#0c2435"></path><path d="M230 389L339.5 400L338.5 298Z" fill="#1d4e6b" stroke="#1d4e6b"></path><path d="M338.5 298L339.5 400L440 289Z" fill="#297ea6" stroke="#297ea6"></path><path d="M339.5 400L460 397L440 289Z" fill="#15384f" stroke="#15384f"></path><path d="M440 289L564.5 211L445 199Z" fill="#297ea6" stroke="#297ea6"></path><path d="M236 205L214 304L338.5 298Z" fill="#19435d" stroke="#19435d"></path><path d="M564.5 293L564.5 211L440 289Z" fill="#15384f" stroke="#15384f"></path><path d="M460 397L564.5 293L440 289Z" fill="#112e42" stroke="#112e42"></path><path d="M214 304L230 389L338.5 298Z" fill="#246688" stroke="#246688"></path><path d="M334.5 102L221 95L328.5 192Z" fill="#246688" stroke="#246688"></path><path d="M236 205L121.5 194L214 304Z" fill="#19435d" stroke="#19435d"></path><path d="M237 0L221 95L334.5 102Z" fill="#15384f" stroke="#15384f"></path><path d="M683 190L571.5 107L564.5 211Z" fill="#205a7a" stroke="#205a7a"></path><path d="M564.5 211L571.5 107L445 199Z" fill="#205a7a" stroke="#205a7a"></path><path d="M460 397L563.5 395L564.5 293Z" fill="#00101c" stroke="#00101c"></path><path d="M686 297L683 190L564.5 211Z" fill="#297ea6" stroke="#297ea6"></path><path d="M555.5 493L563.5 395L460 397Z" fill="#19435d" stroke="#19435d"></path><path d="M443 0L334.5 102L460 94Z" fill="#112e42" stroke="#112e42"></path><path d="M443 0L345.5 0L334.5 102Z" fill="#297ea6" stroke="#297ea6"></path><path d="M563.5 0L443 0L460 94Z" fill="#081a28" stroke="#081a28"></path><path d="M219 500L347.5 494L339.5 400Z" fill="#297ea6" stroke="#297ea6"></path><path d="M339.5 400L347.5 494L460 397Z" fill="#112e42" stroke="#112e42"></path><path d="M221 95L121.5 194L236 205Z" fill="#205a7a" stroke="#205a7a"></path><path d="M214 304L100.5 399L230 389Z" fill="#0c2435" stroke="#0c2435"></path><path d="M347.5 494L462 506L460 397Z" fill="#277297" stroke="#277297"></path><path d="M345.5 0L237 0L334.5 102Z" fill="#0c2435" stroke="#0c2435"></path><path d="M221 95L101.5 97L121.5 194Z" fill="#19435d" stroke="#19435d"></path><path d="M121.5 194L105.5 303L214 304Z" fill="#081a28" stroke="#081a28"></path><path d="M230 389L219 500L339.5 400Z" fill="#297ea6" stroke="#297ea6"></path><path d="M571.5 107L563.5 0L460 94Z" fill="#19435d" stroke="#19435d"></path><path d="M686 297L564.5 211L564.5 293Z" fill="#19435d" stroke="#19435d"></path><path d="M571.5 107L669 103L563.5 0Z" fill="#15384f" stroke="#15384f"></path><path d="M462 506L555.5 493L460 397Z" fill="#112e42" stroke="#112e42"></path><path d="M668 388L686 297L564.5 293Z" fill="#00101c" stroke="#00101c"></path><path d="M668 388L564.5 293L563.5 395Z" fill="#277297" stroke="#277297"></path><path d="M100.5 399L219 500L230 389Z" fill="#00101c" stroke="#00101c"></path><path d="M347.5 494L449 600L462 506Z" fill="#00101c" stroke="#00101c"></path><path d="M683 190L669 103L571.5 107Z" fill="#15384f" stroke="#15384f"></path><path d="M122.5 0L101.5 97L221 95Z" fill="#0c2435" stroke="#0c2435"></path><path d="M121.5 194L0 211L105.5 303Z" fill="#00101c" stroke="#00101c"></path><path d="M555.5 493L668 388L563.5 395Z" fill="#15384f" stroke="#15384f"></path><path d="M0 399L100.5 399L105.5 303Z" fill="#205a7a" stroke="#205a7a"></path><path d="M105.5 303L100.5 399L214 304Z" fill="#00101c" stroke="#00101c"></path><path d="M237 0L122.5 0L221 95Z" fill="#1d4e6b" stroke="#1d4e6b"></path><path d="M219 500L348.5 600L347.5 494Z" fill="#00101c" stroke="#00101c"></path><path d="M462 506L568.5 600L555.5 493Z" fill="#112e42" stroke="#112e42"></path><path d="M348.5 600L449 600L347.5 494Z" fill="#277297" stroke="#277297"></path><path d="M555.5 493L676 508L668 388Z" fill="#1d4e6b" stroke="#1d4e6b"></path><path d="M100.5 399L102.5 487L219 500Z" fill="#246688" stroke="#246688"></path><path d="M219 500L219 600L348.5 600Z" fill="#297ea6" stroke="#297ea6"></path><path d="M780.5 104L669 103L683 190Z" fill="#112e42" stroke="#112e42"></path><path d="M780.5 104L680 0L669 103Z" fill="#1d4e6b" stroke="#1d4e6b"></path><path d="M669 103L680 0L563.5 0Z" fill="#112e42" stroke="#112e42"></path><path d="M0 101L0 211L101.5 97Z" fill="#246688" stroke="#246688"></path><path d="M101.5 97L0 211L121.5 194Z" fill="#0c2435" stroke="#0c2435"></path><path d="M100.5 399L0 399L102.5 487Z" fill="#277297" stroke="#277297"></path><path d="M0 211L0 290L105.5 303Z" fill="#205a7a" stroke="#205a7a"></path><path d="M686 297L774.5 206L683 190Z" fill="#277297" stroke="#277297"></path><path d="M795.5 297L774.5 206L686 297Z" fill="#0c2435" stroke="#0c2435"></path><path d="M568.5 600L676 508L555.5 493Z" fill="#205a7a" stroke="#205a7a"></path><path d="M799.5 389L795.5 297L686 297Z" fill="#00101c" stroke="#00101c"></path><path d="M117.5 600L219 600L219 500Z" fill="#00101c" stroke="#00101c"></path><path d="M449 600L568.5 600L462 506Z" fill="#205a7a" stroke="#205a7a"></path><path d="M0 0L0 101L101.5 97Z" fill="#1d4e6b" stroke="#1d4e6b"></path><path d="M799.5 389L686 297L668 388Z" fill="#297ea6" stroke="#297ea6"></path><path d="M0 290L0 399L105.5 303Z" fill="#297ea6" stroke="#297ea6"></path><path d="M102.5 487L117.5 600L219 500Z" fill="#297ea6" stroke="#297ea6"></path><path d="M900 191L780.5 104L774.5 206Z" fill="#19435d" stroke="#19435d"></path><path d="M774.5 206L780.5 104L683 190Z" fill="#0c2435" stroke="#0c2435"></path><path d="M791.5 495L799.5 389L668 388Z" fill="#277297" stroke="#277297"></path><path d="M0 600L117.5 600L102.5 487Z" fill="#205a7a" stroke="#205a7a"></path><path d="M122.5 0L0 0L101.5 97Z" fill="#112e42" stroke="#112e42"></path><path d="M0 399L0 499L102.5 487Z" fill="#246688" stroke="#246688"></path><path d="M900 104L784.5 0L780.5 104Z" fill="#15384f" stroke="#15384f"></path><path d="M780.5 104L784.5 0L680 0Z" fill="#19435d" stroke="#19435d"></path><path d="M900 191L774.5 206L795.5 297Z" fill="#297ea6" stroke="#297ea6"></path><path d="M568.5 600L686 600L676 508Z" fill="#00101c" stroke="#00101c"></path><path d="M676 508L791.5 495L668 388Z" fill="#297ea6" stroke="#297ea6"></path><path d="M686 600L791.5 495L676 508Z" fill="#15384f" stroke="#15384f"></path><path d="M900 295L900 191L795.5 297Z" fill="#081a28" stroke="#081a28"></path><path d="M900 295L795.5 297L799.5 389Z" fill="#277297" stroke="#277297"></path><path d="M900 408L900 295L799.5 389Z" fill="#15384f" stroke="#15384f"></path><path d="M0 499L0 600L102.5 487Z" fill="#19435d" stroke="#19435d"></path><path d="M900 191L900 104L780.5 104Z" fill="#081a28" stroke="#081a28"></path><path d="M900 493L900 408L791.5 495Z" fill="#19435d" stroke="#19435d"></path><path d="M791.5 495L900 408L799.5 389Z" fill="#246688" stroke="#246688"></path><path d="M686 600L799.5 600L791.5 495Z" fill="#112e42" stroke="#112e42"></path><path d="M900 104L900 0L784.5 0Z" fill="#277297" stroke="#277297"></path><path d="M799.5 600L900 493L791.5 495Z" fill="#19435d" stroke="#19435d"></path><path d="M799.5 600L900 600L900 493Z" fill="#205a7a" stroke="#205a7a"></path></g></svg>